<svg width="512" height="513" viewBox="0 0 512 513" fill="none" xmlns="http://www.w3.org/2000/svg">
<path fill-rule="evenodd" clip-rule="evenodd" d="M256 0.113144C114.615 0.113144 0 114.728 0 256.113C0 397.498 114.615 512.113 256 512.113C397.385 512.113 512 397.498 512 256.113C512 114.728 397.385 0.113144 256 0.113144ZM202.453 145.648C191.906 135.667 174.912 122.942 165.244 117.702C144.15 106.474 135.067 103.48 132.43 106.973C130.672 109.718 134.481 117.203 140.633 122.693C147.372 128.681 179.6 165.609 190.147 179.581C193.043 183.475 197.128 188.854 201.247 194.279C205.047 199.282 208.876 204.325 211.828 208.275C221.496 221 223.254 225.242 223.254 236.969C223.254 249.944 221.496 253.188 193.077 293.858C156.748 345.507 152.646 353.242 148.251 375.698C142.684 403.643 151.767 413.125 174.326 403.144C186.925 397.655 191.027 392.415 212.707 355.238C237.317 313.57 247.572 301.842 260.756 301.842C275.112 301.842 293.277 320.057 316.13 358.232C341.619 400.399 357.44 413.873 368.281 402.895C377.656 393.164 359.784 350.996 326.091 303.339C288.297 249.944 285.953 242.708 298.844 220.002C312.028 197.297 363.886 128.93 373.847 121.195C377.363 118.451 380 113.71 380 110.466C380 95.7453 347.186 111.964 311.735 144.65C269.839 183.074 242.005 183.324 202.453 145.648Z" fill="#17181C"/>
</svg>
